# xmcd
# 
# Track frame offsets:
#     150
#     14130
#     28977
#     41396
#     54228
#     67753
#     80674
#     92345
#     105534
#     118074
#     128555
#     142586
#     155161
#     167816
#     178603
#     192361
#     206003
#     218421
#     231356
#     244470
# 
# Disc length: 3429
# 
# Revision: 1
# Processed by: cddbd v1.5.2PL0 Copyright (c) Steve Scherf et al.
# Submitted via: fre:ac v1.0.31
# 
DISCID=110d6314
DTITLE=Little Walter - Blowin' The Blues Disc 2
DYEAR=2008
DGENRE=Blues
TTITLE0=You'd Better Watch Yourself
TTITLE1=Blue Light
TTITLE2=Last Night
TTITLE3=Mellow Down Easy
TTITLE4=Instrumental
TTITLE5=Thunderbird
TTITLE6=My Babe
TTITLE7=Roller Coaster
TTITLE8=I Hate To See You Go
TTITLE9=I Got To Go
TTITLE10=Little Girl
TTITLE11=Crazy For My Baby
TTITLE12=Can't Stop Lovin' You
TTITLE13=Who
TTITLE14=Flying Saucer
TTITLE15=Teenage Beat
TTITLE16=Shake Dancer
TTITLE17=Ah'W Baby
TTITLE18=Mean Old World
TTITLE19=Back Track
EXTD=
EXTT0=
EXTT1=
EXTT2=
EXTT3=
EXTT4=
EXTT5=
EXTT6=
EXTT7=
EXTT8=
EXTT9=
EXTT10=
EXTT11=
EXTT12=
EXTT13=
EXTT14=
EXTT15=
EXTT16=
EXTT17=
EXTT18=
EXTT19=
PLAYORDER=
